<svg xmlns="http://www.w3.org/2000/svg" width="40" height="62" fill="none"><g fill="#149080" opacity=".5"><path d="M15.162 37.7167c-.2993.9952-.1995 2.1894 0 3.5827.4987 2.5875 1.6957 5.9711 2.394 9.6533h5.0873c.6982-3.5826 1.8952-6.9663 2.4937-9.6533.2993-1.3933.2993-2.687 0-3.5827-.2992-.8957-.8977-1.5923-1.995-2.289h-5.985c-1.197.6967-1.7955 1.3933-1.995 2.289ZM26.9327 57.6211H13.1671c-1.2968 0-2.2943.9952-2.2943 2.1894v2.1894h18.3541v-2.1894c0-1.1942-.9975-2.1894-2.2942-2.1894ZM34.015 2.18943H22.3441C22.3441.99519 21.3466 0 20.0499 0c-1.2968 0-2.2943.9952-2.2943 2.18943H6.08478L0 27.5668c.798-.4975 1.59602-.9951 2.59352-.9951 1.39651 0 2.19451.7961 2.89277 1.3932.69825.5971 1.197.7962 1.3965.7962.29925 0 .798-.2986 1.49626-.7962.69825-.4976 1.596-1.3932 2.89275-1.3932 1.2968 0 2.1945.7961 2.8928 1.3932.6982.4976 1.197.7962 1.4962.7962.0998 0 .2993-.0995.5985-.1991.1995-.0995.4988-.398.8978-.5971.4988-.3981 1.0973-.9952 1.995-1.1942.2993-.0995.5985-.0995.8978-.0995 1.2967 0 2.1945.7961 2.8927 1.3932.6983.4976 1.1971.7962 1.4963.7962.2993 0 .798-.2986 1.3965-.7962.6983-.5971 1.596-1.3932 2.8928-1.3932 1.3965 0 2.1945.7961 2.8928 1.3932.2992.2986.5984.4976.8977.5972.1995.0995.399.199.5985.199.2993 0 .798-.2986 1.3965-.8957.6983-.5971 1.596-1.3932 2.8928-1.3932.9975 0 1.7955.4976 2.5935.9951L34.015 2.18943ZM23.4415 53.1426h-6.8828c-.6983 0-1.0973.4976-1.0973 1.0947s.4988 1.0947 1.0973 1.0947h6.8828c.6982 0 1.0972-.4976 1.0972-1.0947.0998-.5971-.399-1.0947-1.0972-1.0947Z"/><path d="M20.0499 28.7598c-.0998 0-.2993.0995-.5985.199-.1995.0995-.399.2986-.5985.3981v3.6822h2.2942v-3.5827c-.4987-.3981-.8977-.6966-1.0972-.6966Z"/></g></svg>