<svg xmlns="http://www.w3.org/2000/svg" width="60" height="60" fill="none"><path fill="#149080" d="M0 43.9933 27.4 60V36.5436L0 20.4362v23.5571Zm51.3-31.5101V15c0 1.8121-3.5 3.3221-7.7 3.3221-4.3 0-7.7-1.51-7.7-3.3221v-4.1275c.3 1.7114 3.6 3.1208 7.7 3.1208 4.3 0 7.7-1.5101 7.7-3.3222 0-1.81203-3.5-3.3221-7.7-3.3221h-1l-5-2.91946v3.1208c0 1.81208-3.5 3.32216-7.7 3.32216-2.7 0-5-.604-6.4-1.51008-.2-.20134-.4-.40269-.7-.60403-.4-.40269-.6-.80537-.6-1.20805V4.5302L17.4 7.349h-1.1c-4.3 0-7.69999 1.51007-7.69999 3.3221 0 1.8121 3.49999 3.3222 7.69999 3.3222 4.1 0 7.4-1.4094 7.7-3.1208V15c0 1.8121-3.5 3.3221-7.7 3.3221-4.3 0-7.69999-1.51-7.69999-3.3221v-2.4161l-6 3.5235L30.1 32.2148l27.4-16.0067-6.2-3.7249ZM37.7 22.7517c0 1.8121-3.5 3.3221-7.7 3.3221-4.3 0-7.7-1.51-7.7-3.3221v-4.1275c.3 1.7114 3.6 3.1208 7.7 3.1208s7.4-1.4094 7.7-3.1208v4.1275ZM32.6 36.745V60L60 43.9933v-23.255L32.6 36.745ZM29.9 6.6443c4.3 0 7.7-1.51007 7.7-3.32215C37.6 1.51007 34.1 0 29.9 0c-4.3 0-7.7 1.51007-7.7 3.32215 0 1.81208 3.4 3.32215 7.7 3.32215Z" opacity=".5"/></svg>